<svg height="512" viewBox="0 0 128 128" width="512" xmlns="http://www.w3.org/2000/svg"><g><path d="m64 63.129a12.669 12.669 0 1 0 -12.669-12.669 12.684 12.684 0 0 0 12.669 12.669zm0-21.838a9.169 9.169 0 1 1 -9.169 9.169 9.179 9.179 0 0 1 9.169-9.169z"/><path d="m105.747 70.923a17.056 17.056 0 0 0 -26.29 2.639c-.091-.095-.177-.2-.27-.289a21.474 21.474 0 0 0 -30.376 0c-.092.093-.176.193-.267.287a17.067 17.067 0 0 0 -31.294 9.44v5.46a1.75 1.75 0 0 0 1.75 1.75h90a1.75 1.75 0 0 0 1.75-1.75v-5.46a17 17 0 0 0 -5.003-12.077zm-84.997 12.077a13.573 13.573 0 0 1 23.173-9.6 13.318 13.318 0 0 1 2.285 3.053 21.221 21.221 0 0 0 -3.619 10.257h-21.839zm25.35 3.71a17.8 17.8 0 0 1 3.534-9.065 18.209 18.209 0 0 1 1.651-1.9 17.976 17.976 0 0 1 25.425 0 18.3 18.3 0 0 1 1.651 1.9 17.785 17.785 0 0 1 3.539 9.065zm61.148 0h-21.837a21.224 21.224 0 0 0 -3.621-10.261 13.615 13.615 0 0 1 11.89-7.029 13.58 13.58 0 0 1 13.57 13.58z"/><path d="m93.677 63.714a10.231 10.231 0 1 0 -10.232-10.231 10.243 10.243 0 0 0 10.232 10.231zm0-16.962a6.731 6.731 0 1 1 -6.732 6.731 6.738 6.738 0 0 1 6.732-6.731z"/><path d="m34.323 63.714a10.231 10.231 0 1 0 -10.231-10.231 10.243 10.243 0 0 0 10.231 10.231zm0-16.962a6.731 6.731 0 1 1 -6.731 6.731 6.739 6.739 0 0 1 6.731-6.731z"/></g></svg>