<svg height="448pt" viewBox="-60 0 448 448.478" width="448pt" xmlns="http://www.w3.org/2000/svg"><path d="m290.0625 155.476562h-.683594c-9.355468-.058593-18.386718 3.398438-25.3125 9.6875-5.523437-15.574218-19.773437-26.8125-36.472656-26.8125-10.246094 0-20.046875 4.183594-27.136719 11.578126-6.449219-13.25-19.527343-22.453126-34.574219-22.453126h-.726562c-8.203125-.015624-16.164062 2.800782-22.53125 7.972657v-94.394531c0-22.640626-17.585938-41.054688-39.015625-41.054688-21.410156 0-38.917969 18.398438-38.933594 41.023438l-.125 124.328124-49.160156 46.226563c-14.25 13.332031-18.96875 33.980469-11.929687 52.179687l51.328124 133.589844c.105469.28125.230469.316406.367188.585938 16.304688 31.324218 47.328125 50.542968 80.96875 50.542968h100.199219c50.988281 0 92.511719-43.9375 92.5625-98.242187.023437-24.203125.046875-42.144531.066406-56.804687.050781-39.4375.070313-53.890626-.03125-97.308594-.054687-22.578125-17.484375-40.644532-38.859375-40.644532zm22.886719 138.050782c-.015625 14.664062-.042969 32.484375-.0625 56.691406-.042969 45.492188-34.390625 82.257812-76.5625 82.257812h-100.199219c-27.511719 0-52.976562-15.753906-66.570312-41.539062l-51.167969-133.039062c-4.695313-12.109376-1.550781-25.859376 7.945312-34.726563l38.167969-35.871094-.046875 63.132813c-.003906 4.425781 3.570313 8.023437 7.996094 8.042968h.003906c4.433594-.003906 8.03125-3.585937 8.058594-8.015624l.113281-81.613282v-.0625l.03125-127.75c.011719-13.800781 10.386719-25.035156 22.988281-25.035156 12.601563 0 22.980469 11.238281 22.980469 25.054688v126.257812c0 .4375-.019531.878906-.019531 1.324219 0 .191406.019531.378906.019531.570312v53.984375c0 4.417969 3.582031 8 8 8s8-3.582031 8-8v-55.609375c0-13.320312 10.25-24.097656 22.53125-24.097656h.726562c12.597657 0 22.742188 11.351563 22.742188 25.167969v49.394531c0 4.417969 3.582031 8 8 8s8-3.582031 8-8v-38.761719c0-13.816406 10.359375-25.054687 23.035156-25.054687 12.601563 0 22.964844 11.238281 22.964844 25.054687v36.5625c0 4.417969 3.582031 8 8 8s8-3.582031 8-8v-19.800781c0-13.8125 10.148438-24.570313 22.753906-24.570313h.683594c12.570312 0 22.824219 10.964844 22.855469 24.742188.105469 43.386719.082031 57.894531.03125 97.308594zm0 0"/></svg>